<svg version="1.1" viewBox="0.0 0.0 960.0 720.0" fill="none" stroke="none" stroke-linecap="square" stroke-miterlimit="10" xmlns:xlink="http://www.w3.org/1999/xlink" xmlns="http://www.w3.org/2000/svg"><clipPath id="p.0"><path d="m0 0l960.0 0l0 720.0l-960.0 0l0 -720.0z" clip-rule="nonzero"/></clipPath><g clip-path="url(#p.0)"><path fill="#000000" fill-opacity="0.0" d="m0 0l960.0 0l0 720.0l-960.0 0z" fill-rule="evenodd"/><path fill="#000000" fill-opacity="0.0" d="m13.015748 372.00034c41.524937 -35.166687 168.25897 -239.00002 249.1496 -211.00002c80.890656 28.0 177.05511 347.0 236.19424 379.0c59.13907 32.0 46.783478 -154.83331 118.64041 -186.99997c71.85693 -32.166687 260.4178 -5.0 312.50134 -6.0" fill-rule="evenodd"/><path stroke="#d70040" stroke-width="24.0" stroke-linejoin="round" stroke-linecap="butt" d="m13.015748 372.00034c41.524937 -35.166687 168.25897 -239.00002 249.1496 -211.00002c80.890656 28.0 177.05511 347.0 236.19424 379.0c59.13907 32.0 46.783478 -154.83331 118.64041 -186.99997c71.85693 -32.166687 260.4178 -5.0 312.50134 -6.0" fill-rule="evenodd"/><path fill="#000000" fill-opacity="0.0" d="m55.0 177.0c35.666664 56.66667 158.33333 339.0 214.0 340.0c55.666656 1.0 52.166656 -318.0 120.0 -334.0c67.83334 -16.0 200.74976 190.74979 287.0 238.0c86.250244 47.250214 192.08441 37.917755 230.50134 45.501312" fill-rule="evenodd"/><path stroke="#fdda0d" stroke-width="24.0" stroke-linejoin="round" stroke-linecap="butt" d="m55.0 177.0c35.666664 56.66667 158.33333 339.0 214.0 340.0c55.666656 1.0 52.166656 -318.0 120.0 -334.0c67.83334 -16.0 200.74976 190.74979 287.0 238.0c86.250244 47.250214 192.08441 37.917755 230.50134 45.501312" fill-rule="evenodd"/><path fill="#000000" fill-opacity="0.0" d="m34.0 434.0001c61.339897 -32.166656 227.53937 -172.4169 368.03937 -193.0c140.5 -20.583115 395.80054 57.917755 474.96063 69.50131" fill-rule="evenodd"/><path stroke="#4169e1" stroke-width="24.0" stroke-linejoin="round" stroke-linecap="butt" d="m34.0 434.0001c61.339897 -32.166656 227.53937 -172.4169 368.03937 -193.0c140.5 -20.583115 395.80054 57.917755 474.96063 69.50131" fill-rule="evenodd"/></g></svg>