<?xml version="1.0" standalone="no"?>
<!DOCTYPE svg PUBLIC "-//W3C//DTD SVG 20010904//EN"
 "http://www.w3.org/TR/2001/REC-SVG-20010904/DTD/svg10.dtd">
<svg version="1.0" xmlns="http://www.w3.org/2000/svg"
 width="337.000000pt" height="337.000000pt" viewBox="0 0 337.000000 337.000000"
 preserveAspectRatio="xMidYMid meet">
<metadata>
Created by potrace 1.14, written by Peter Selinger 2001-2017
</metadata>
<g transform="translate(0.000000,337.000000) scale(0.100000,-0.100000)"
fill="#000000" stroke="none">
<path d="M1166 3164 c-9 -8 -16 -20 -16 -25 0 -10 -79 -224 -180 -489 -53
-137 -61 -159 -169 -450 -34 -91 -66 -175 -71 -188 -6 -13 -26 -67 -46 -120
-60 -165 -76 -206 -85 -227 -4 -11 -40 -103 -78 -205 -78 -209 -97 -260 -116
-310 -32 -82 -137 -363 -170 -455 -40 -109 -64 -172 -93 -250 -75 -193 -122
-318 -122 -321 0 -2 217 -3 481 -2 l481 3 59 195 c33 107 67 221 76 252 l18
58 65 1 c283 4 994 -1 1000 -8 4 -4 40 -119 80 -256 l73 -247 494 0 c271 0
493 2 493 5 0 7 -48 136 -60 160 -5 11 -68 178 -140 370 -72 193 -134 359
-139 370 -5 11 -14 36 -21 55 -7 19 -16 44 -20 55 -4 11 -13 36 -20 55 -7 19
-16 44 -21 55 -5 11 -81 214 -169 450 -88 237 -164 439 -169 450 -5 11 -19 49
-31 85 -11 36 -25 74 -30 85 -5 11 -50 130 -101 265 -50 135 -101 272 -114
305 -13 33 -36 94 -50 135 -15 41 -35 94 -46 118 l-19 42 -504 0 c-445 0 -506
-2 -520 -16z m564 -971 c29 -98 59 -196 66 -218 41 -118 205 -677 200 -682 -6
-6 -648 -4 -654 2 -3 3 2 31 12 63 35 108 56 177 92 297 19 66 44 145 54 176
11 31 21 67 24 80 3 13 35 120 71 236 36 117 65 215 65 218 0 3 4 5 8 5 5 0
32 -80 62 -177z"/>
</g>
</svg>
